<svg width="120" height="120" viewBox="0 0 120 120" fill="none" xmlns="http://www.w3.org/2000/svg">
  <!-- NOIR AI Logo - Organic Flowing "N" Design -->
  <!-- Left vertical bar with concave inner curve -->
  <path d="M 20 20 
           L 20 100" 
        stroke="currentColor" 
        stroke-width="4" 
        stroke-linecap="round"/>
  
  <!-- Right vertical bar with concave inner curve -->
  <path d="M 100 20 
           L 100 100" 
        stroke="currentColor" 
        stroke-width="4" 
        stroke-linecap="round"/>
  
  <!-- Flowing diagonal stroke with organic S-curves (main diagonal) -->
  <path d="M 20 20 
           C 25 25, 30 35, 35 45
           C 40 55, 45 65, 50 70
           C 55 75, 60 80, 65 85
           C 70 90, 80 95, 100 100" 
        stroke="currentColor" 
        stroke-width="4" 
        fill="none" 
        stroke-linecap="round" 
        stroke-linejoin="round"/>
  
  <!-- Secondary flowing curve for depth and movement -->
  <path d="M 25 25 
           C 30 30, 35 40, 40 48
           C 45 56, 50 62, 55 68
           C 60 74, 70 80, 80 85
           C 85 88, 90 92, 95 95" 
        stroke="currentColor" 
        stroke-width="3" 
        fill="none" 
        stroke-linecap="round" 
        stroke-linejoin="round" 
        opacity="0.6"/>
</svg>
